<svg
    xmlns:dc="http://purl.org/dc/elements/1.1/"
    xmlns:cc="http://creativecommons.org/ns#"
    xmlns:rdf="http://www.w3.org/1999/02/22-rdf-syntax-ns#"
    xmlns:svg="http://www.w3.org/2000/svg"
    xmlns="http://www.w3.org/2000/svg"
    xmlns:inkscape="http://www.inkscape.org/namespaces/inkscape"
    inkscape:version="0.92.2 (5c3e80d, 2017-08-06)"
    class="fill-primary" height="85"   viewBox="0 0 1716.8 990.4">
    <path
        style="fill:#5e5f60"
        d="m 24.8,496.00001 v -231.2 h 246.4 246.4 v 231.2 231.2 h -83.2 -83.2 v -103.6 -103.6 h 25.6 25.6 v -34.4 -34.4 h -25.69677 -25.69676 l 0.35356,-17.4 c 0.40039,-19.70459 1.19769,-22.98609 6.88941,-28.35512 4.16562,-3.92945 8.4493,-4.64488 27.81159,-4.64488 H 402.4 v -35.6 -35.6 l -29,0.027 c -15.95,0.0148 -32.65974,0.35704 -37.13275,0.7605 -35.19171,3.17426 -54.77161,19.62585 -62.37895,52.41255 -1.94067,8.36409 -2.06238,10.27616 -2.45704,38.6 l -0.41523,29.79999 H 247.50802 224 v 34.4 34.4 h 23.6 23.6 v 103.6 103.6 H 148 24.8 Z M 842,709.64558 c -14.72464,-2.45692 -25.4072,-11.44844 -30.53672,-25.70281 -2.09624,-5.82508 -2.13888,-6.33088 -2.15312,-25.54276 -0.0144,-19.18865 0.0296,-19.72192 2.0932,-25.40951 4.39464,-12.1125 12.16912,-19.75655 24.2724,-23.8653 5.58416,-1.89566 7.54128,-2.14658 16.72424,-2.14419 9.02864,0.002 11.24656,0.27779 16.82024,2.08887 11.63392,3.78029 19.32744,11.22374 24.1168,23.333 l 2.21376,5.59713 -0.008,20.4 -0.008,20.4 -2.26536,5.96524 c -4.2556,11.20582 -11.76984,18.82841 -22.47176,22.79576 -4.55,1.68677 -7.39992,2.13939 -15.2,2.414 -5.28,0.18591 -11.4,0.0377 -13.6,-0.32943 z m 20.22504,-27.64345 c 1.53056,-1.04007 3.72608,-3.44603 4.87896,-5.34658 2.05576,-3.38914 2.096,-3.73221 2.096,-17.85554 0,-13.38465 -0.1264,-14.63646 -1.79264,-17.75365 -3.53312,-6.6098 -10.74664,-9.72586 -18.93688,-8.1802 -5.05696,0.95433 -8.62984,3.72204 -10.98856,8.5121 -1.74792,3.54957 -1.8808,4.76186 -1.86632,17.02175 0.0144,12.07004 0.17464,13.55462 1.87376,17.34252 1.99504,4.44752 6.03848,7.82336 10.19656,8.51299 4.68768,0.77746 11.67176,-0.30499 14.53912,-2.25339 z M 1128.4,709.64558 c -14.7246,-2.45692 -25.4072,-11.44844 -30.5367,-25.70281 -2.0963,-5.82508 -2.1389,-6.33088 -2.1531,-25.54276 -0.014,-19.18865 0.03,-19.72192 2.0932,-25.40951 4.3946,-12.1125 12.1691,-19.75655 24.2724,-23.8653 5.5841,-1.89566 7.5412,-2.14658 16.7242,-2.14419 9.0286,0.002 11.2466,0.27779 16.8202,2.08887 11.634,3.78029 19.3275,11.22374 24.1168,23.333 l 2.2138,5.59713 -0.01,20.4 -0.01,20.4 -2.2654,5.96524 c -4.2556,11.20582 -11.7698,18.82841 -22.4717,22.79576 -4.55,1.68677 -7.3999,2.13939 -15.2,2.414 -5.28,0.18591 -11.4,0.0377 -13.6,-0.32943 z m 20.225,-27.64345 c 1.5306,-1.04007 3.7261,-3.44603 4.879,-5.34658 2.0558,-3.38914 2.096,-3.73221 2.096,-17.85554 0,-13.38465 -0.1264,-14.63646 -1.7926,-17.75365 -3.5332,-6.6098 -10.7467,-9.72586 -18.9369,-8.1802 -5.057,0.95433 -8.6299,3.72204 -10.9886,8.5121 -1.7479,3.54957 -1.8808,4.76186 -1.8663,17.02175 0.014,12.07004 0.1746,13.55462 1.8738,17.34252 1.995,4.44752 6.0384,7.82336 10.1965,8.51299 4.6877,0.77746 11.6718,-0.30499 14.5391,-2.25339 z m 256.175,27.25311 c -13.8604,-3.85671 -20.0735,-13.02455 -20.12,-29.68827 -0.041,-14.53677 5.9205,-23.37619 18.92,-28.05596 3.3065,-1.19032 7.243,-1.49219 22.7042,-1.74109 l 18.7044,-0.30111 -0.4074,-5.07481 c -0.6903,-8.59987 -5.3827,-12.80423 -15.3267,-13.73282 -6.3734,-0.59515 -12.2095,0.73516 -18.5112,4.21955 l -4.8367,2.67433 -8.2122,-8.24025 -8.2122,-8.24025 3.2289,-2.91717 c 3.9535,-3.57176 12.3051,-7.80345 19.2689,-9.76341 3.9288,-1.10577 7.8402,-1.45103 16,-1.41234 9.4926,0.045 11.5165,0.30253 16.7185,2.12743 14.6239,5.13013 21.8527,14.03019 24.0134,29.56535 0.5055,3.63383 0.8681,19.58623 0.8681,38.18348 v 31.94211 h -12.4 -12.4 v -4.50788 -4.50789 l -1.5266,1.94082 c -2.0871,2.65321 -8.2736,5.88314 -14.1888,7.40791 -5.8624,1.51113 -19.0545,1.57755 -24.2846,0.12227 z m 31.6548,-21.66612 c 6.8201,-2.09329 7.781,-3.41843 8.1948,-11.30041 l 0.3578,-6.81864 -14.7036,0.26498 c -11.8875,0.21421 -15.172,0.52162 -17.148,1.60496 -6.3346,3.47276 -5.5991,13.3691 1.2037,16.19684 3.8635,1.60596 16.9326,1.63687 22.0953,0.0522 z M 1610.4,709.25524 c -13.8604,-3.85671 -20.0735,-13.02455 -20.12,-29.68827 -0.041,-14.53677 5.9205,-23.37619 18.92,-28.05596 3.3065,-1.19032 7.243,-1.49219 22.7042,-1.74109 l 18.7044,-0.30111 -0.4074,-5.07481 c -0.6903,-8.59987 -5.3827,-12.80423 -15.3267,-13.73282 -6.3734,-0.59515 -12.2095,0.73516 -18.5112,4.21955 l -4.8367,2.67433 -8.2122,-8.24025 -8.2122,-8.24025 3.2289,-2.91717 c 3.9535,-3.57176 12.3051,-7.80345 19.2689,-9.76341 3.9288,-1.10577 7.8402,-1.45103 16,-1.41234 9.4926,0.045 11.5165,0.30253 16.7185,2.12743 14.6239,5.13013 21.8527,14.03019 24.0134,29.56535 0.5055,3.63383 0.8681,19.58623 0.8681,38.18348 v 31.94211 h -12.4 -12.4 v -4.50788 -4.50789 l -1.5266,1.94082 c -2.0871,2.65321 -8.2736,5.88314 -14.1888,7.40791 -5.8624,1.51113 -19.0545,1.57755 -24.2846,0.12227 z m 31.6548,-21.66612 c 6.8201,-2.09329 7.781,-3.41843 8.1948,-11.30041 l 0.3578,-6.81864 -14.7036,0.26498 c -11.8875,0.21421 -15.172,0.52162 -17.148,1.60496 -6.3346,3.47276 -5.5991,13.3691 1.2037,16.19684 3.8635,1.60596 16.9326,1.63687 22.0953,0.0522 z m -590.2808,21.13763 c -6.6056,-1.55543 -10.971,-5.23163 -14.0766,-11.8543 l -2.0974,-4.47244 -0.2432,-31 -0.2432,-31 h -5.1568 -5.1568 v -11.2 -11.2 h 5.2 5.2 v -14.8 -14.8 h 13.2 13.2 v 14.8 14.8 h 6.4 6.4 v 11.2 11.2 h -6.4 -6.4 l 0.01,23 c 0,13.42856 0.3501,24.24453 0.835,25.99059 1.0152,3.6556 2.6516,4.60941 7.908,4.60941 h 4.0525 v 12.8 12.8 l -9.8,-0.0804 c -5.39,-0.0442 -11.1617,-0.401 -12.826,-0.7929 z M 684.8,637.96706 v -70.92247 l 34.6,0.34197 c 33.30358,0.32915 34.80982,0.41 40.2,2.15813 15.42047,5.00113 23.80947,14.89162 25.84588,30.47184 2.08293,15.93619 -3.63779,27.19543 -16.85751,33.17813 -2.3036,1.04252 -5.62028,2.15564 -7.37039,2.4736 l -3.18202,0.57811 4.78202,1.33343 c 17.93622,5.0014 26.42061,17.76223 24.74689,37.22021 -1.34975,15.69167 -10.00011,26.74747 -24.79753,31.69306 -5.44431,1.81959 -6.36734,1.86664 -41.76734,2.12858 l -36.2,0.26788 z m 67.66486,43.08563 c 5.37085,-2.87441 7.59337,-6.53135 8.07292,-13.28321 0.49428,-6.95924 -0.77205,-10.52723 -4.96204,-13.98098 -4.54399,-3.74553 -7.36432,-4.18849 -26.66856,-4.18849 H 711.2 v 16.85234 16.85234 l 19,-0.25234 c 17.73862,-0.23558 19.21675,-0.36834 22.26486,-1.99966 z m -0.29069,-60.11646 c 4.62673,-2.89936 6.44899,-6.51918 6.50767,-12.92704 0.0591,-6.45694 -1.75898,-9.78019 -6.98625,-12.76992 -3.13972,-1.79576 -4.17532,-1.90243 -21.89559,-2.25508 l -18.6,-0.37017 v 15.34533 15.34533 l 19,-0.25233 c 18.29048,-0.24291 19.11106,-0.32194 21.97417,-2.11612 z M 920.8,658.40001 v -50.4 h 13.2 13.2 v 6.92003 6.92004 l 2.30064,-3.12004 c 6.58056,-8.92404 12.26888,-11.80348 23.29936,-11.79408 5.95528,0.005 8.59496,0.39392 12.19736,1.79675 6.34112,2.46935 12.762,8.50617 15.78564,14.84154 4.4684,9.36268 4.817,13.0461 4.817,50.88807 v 34.34769 h -13.15168 -13.15168 l -0.24832,-33 c -0.24632,-32.73476 -0.26312,-33.02574 -2.08512,-36.20338 -2.7024,-4.71301 -7.09192,-6.94279 -13.74936,-6.98447 -6.47456,-0.0406 -11.05024,2.12456 -13.82568,6.5418 -1.7656,2.81019 -1.79128,3.26696 -2.036,36.24605 l -0.24784,33.4 H 933.95216 920.8 Z m 288,-20.4 v -70.8 h 28.621 c 15.7416,0 31.5232,0.36392 35.0705,0.80871 20.8609,2.61573 34.5379,16.1168 37.1432,36.66534 2.6593,20.97394 -7.5841,39.32555 -25.698,46.03975 -7.3099,2.70953 -16.2351,3.67159 -34.1367,3.67964 l -14.6,0.007 v 27.2 27.2 h -13.2 -13.2 z m 66.6826,-12.4 c 1.8062,-1.22023 3.7672,-3.63494 5.0296,-6.1934 1.7536,-3.55393 2.0223,-5.01787 1.7623,-9.6 -0.4049,-7.13623 -2.4975,-11.10948 -7.4819,-14.2066 l -3.8625,-2.4 -17.8651,-0.26653 -17.865,-0.26654 v 17.70763 17.70764 l 18.661,-0.2411 c 18.394,-0.23765 18.7035,-0.26972 21.6216,-2.2411 z m 70.9597,81.57522 c -5.359,-1.92714 -9.038,-5.38575 -11.8765,-11.16522 l -2.1658,-4.41 -0.219,-62.2 -0.2189,-62.2 h 13.2189 13.219 v 55.25259 c 0,40.47231 0.249,55.72004 0.9306,57.00001 1.5248,2.86288 3.2397,3.69512 7.6694,3.72196 l 4.2,0.0254 v 12.8 12.8 l -10.2,-0.0289 c -8.0586,-0.0228 -11.1148,-0.35784 -14.5577,-1.59592 z m 146.3615,-9.77522 v -11.4 l 22.8939,-26.8 22.8937,-26.8 -22.0976,-0.21265 -22.0976,-0.21266 v -11.98734 -11.98735 h 37.6 37.6 v 11.19271 11.19271 l -22.2769,27.00729 -22.2768,27.00729 23.4768,0.21191 23.4769,0.2119 v 11.9881 11.98809 h -39.6 -39.6 v -11.4 z m -228.5949,-202.4 c 0.4497,-1.18348 57.3275,-167.40946 60.7697,-177.6 l 2.3644,-7 h 12.3284 c 9.3248,0 12.3308,0.24364 12.3375,1 0.01,0.55 -14.1009,42.31 -31.3463,92.8 l -31.3552,91.8 h -12.7392 c -9.8608,0 -12.6535,-0.22595 -12.3593,-1 z M 789.2,469.70393 c -5.80842,-1.55239 -12.79737,-6.83934 -15.47173,-11.70392 -0.70272,-1.27823 -0.88451,-0.35314 -0.90394,4.6 l -0.0243,6.2 h -13.2 -13.2 v -70.8 -70.8 h 13.2 13.2 v 26.97801 c 0,25.3432 0.08,26.85814 1.3209,25 2.77958,-4.16233 6.45377,-7.41309 11.0791,-9.80228 4.37423,-2.25949 5.45069,-2.47531 12.13573,-2.43306 6.41347,0.0406 7.97715,0.34654 12.43787,2.43395 9.49688,4.44411 14.8168,11.15933 18.3548,23.16877 1.71048,5.80616 1.8412,7.68858 1.82336,26.25461 -0.0176,18.15689 -0.17928,20.54197 -1.75696,25.88109 -3.19704,10.8195 -8.98072,18.41472 -17.21736,22.61017 -3.86232,1.96732 -5.836,2.4121 -12.00002,2.70433 -4.05758,0.19237 -8.45742,0.0611 -9.77742,-0.29167 z m 7.80046,-26.80596 c 1.63484,-1.24696 3.61298,-3.91639 4.68882,-6.32745 1.70736,-3.82611 1.86304,-5.2936 1.88584,-17.77051 0.0248,-13.53345 0.0128,-13.62349 -2.37512,-18.4 -2.74986,-5.49971 -5.88238,-7.96075 -11.13542,-8.7485 -7.69578,-1.15405 -14.39838,2.96876 -16.38982,10.08147 -0.65754,2.34854 -0.89396,8.43696 -0.72518,18.67577 0.28848,17.50056 0.93452,19.79452 6.54754,23.24931 2.90857,1.7902 3.98174,1.99494 8.98917,1.71488 4.64947,-0.26005 6.2019,-0.71132 8.51417,-2.47497 z M 932.8,469.67239 c -5.68896,-0.81202 -13.5952,-4.09356 -18.62312,-7.72968 -5.9036,-4.26942 -10.5528,-10.92738 -13.64336,-19.53831 -2.43624,-6.78772 -2.44216,-6.84654 -2.44216,-24.00439 v -17.2 l 2.49432,-6.95484 c 5.72464,-15.96181 17.31016,-24.80047 35.55152,-27.12241 15.93792,-2.02874 31.9452,2.25482 41.4628,11.09546 l 4.4,4.08706 -8.53616,8.57889 -8.53616,8.57888 -4.86136,-2.89586 c -11.70784,-6.97435 -26.95912,-4.83666 -32.45992,4.54975 -4.79856,8.18812 -4.58648,28.04478 0.37656,35.25836 3.51448,5.1081 8.09584,7.4638 15.71272,8.07933 5.34432,0.4319 7.00664,0.24388 10.9168,-1.23473 2.53688,-0.9593 5.6488,-2.61622 6.91552,-3.68204 1.26664,-1.06582 2.61744,-1.93785 3.00176,-1.93785 0.3844,0 4.43344,3.74736 8.99792,8.32747 5.56896,5.58795 8.14552,8.72795 7.832,9.54481 -0.65896,1.71726 -8.1396,7.48788 -12.7072,9.80247 -8.5268,4.32084 -23.51248,6.15897 -35.85248,4.39763 z m 98,-0.0268 c -14.7246,-2.45692 -25.4072,-11.44844 -30.5367,-25.70282 -2.09626,-5.82507 -2.1389,-6.33088 -2.15314,-25.54275 -0.0144,-19.18866 0.0296,-19.72192 2.09324,-25.40952 4.3946,-12.1125 12.1691,-19.75655 24.2724,-23.86529 5.5841,-1.89567 7.5412,-2.14659 16.7242,-2.14419 9.0286,0.002 11.2466,0.27778 16.8202,2.08886 11.634,3.7803 19.3275,11.22374 24.1168,23.333 l 2.2138,5.59714 -0.01,20.4 -0.01,20.4 -2.2654,5.96524 c -4.2556,11.20581 -11.7698,18.82841 -22.4717,22.79576 -4.55,1.68677 -7.3999,2.13938 -15.2,2.414 -5.28,0.1859 -11.4,0.0377 -13.6,-0.32943 z m 20.225,-27.64345 c 1.5306,-1.04008 3.7261,-3.44604 4.879,-5.34659 2.0558,-3.38914 2.096,-3.73221 2.096,-17.85553 0,-13.38466 -0.1264,-14.63647 -1.7926,-17.75366 -3.5332,-6.6098 -10.7467,-9.72586 -18.9369,-8.1802 -5.057,0.95434 -8.6299,3.72204 -10.9886,8.5121 -1.7479,3.54957 -1.8808,4.76186 -1.8663,17.02176 0.014,12.07003 0.1746,13.55461 1.8738,17.34252 1.995,4.44752 6.0384,7.82335 10.1965,8.51298 4.6877,0.77746 11.6718,-0.30499 14.5391,-2.25338 z M 685.6,429.60001 v -39.2 h -5.2 -5.2 v -11.2 -11.2 h 5.08129 5.08128 l 0.44721,-11 c 0.63704,-15.66883 3.15481,-21.93256 10.5154,-26.16023 4.75667,-2.73206 10.37143,-3.63977 22.5142,-3.63977 H 729.6 v 12 12 h -6.67601 c -8.8408,0 -9.61537,0.78055 -10.00609,10.08342 l -0.28208,6.71658 h 8.48208 8.4821 v 11.2 11.2 h -8.4 -8.4 v 39.2 39.2 h -13.6 -13.6 z m 164.8,26 v -13.2 h 13.2 13.2 v 13.2 13.2 h -13.2 -13.2 z m 259.2,-37.2 v -50.4 h 13.2 13.2 v 6.97801 c 0,6.74961 0.043,6.91326 1.3194,5 2.7949,-4.18992 7.2566,-8.20697 11.4806,-10.33651 13.5278,-6.8201 31.7996,-1.37601 39.2836,11.70458 l 2.497,4.36437 2.6293,-3.85523 c 4.0814,-5.98437 9.1078,-10.30981 14.7901,-12.7275 4.4302,-1.88498 6.2658,-2.20639 12.4,-2.17124 5.9594,0.0342 8.096,0.41521 12.4,2.21155 9.3962,3.92163 15.727,11.83456 19.2346,24.04107 1.759,6.12131 1.8512,7.85046 2.184,40.9909 l 0.3476,34.6 h -13.6416 -13.6417 l -0.2415,-32.6 c -0.234,-31.59415 -0.2944,-32.69874 -1.9614,-35.8 -2.1479,-3.99617 -5.5411,-6.53799 -10.088,-7.55697 -7.1098,-1.59334 -13.476,0.86326 -17.2431,6.65378 l -2.1489,3.30319 -0.2483,33 -0.2483,33 h -13.518 -13.518 l -0.2336,-32.6 c -0.2298,-32.04639 -0.2644,-32.65715 -2.0324,-35.96549 -5.2358,-9.79676 -21.7312,-10.44226 -27.6132,-1.08056 -1.7656,2.81018 -1.7913,3.26695 -2.036,36.24605 l -0.2479,33.4 H 1122.7522 1109.6 Z"
        id="path825"
        inkscape:connector-curvature="0" />
</svg>